<?xml version="1.0" encoding="utf-8"?>
<!-- Generator: Adobe Illustrator 23.0.1, SVG Export Plug-In . SVG Version: 6.00 Build 0)  -->
<svg version="1.1" id="Layer_1" xmlns="http://www.w3.org/2000/svg" xmlns:xlink="http://www.w3.org/1999/xlink" x="0px" y="0px"
	 viewBox="0 0 512 512" style="enable-background:new 0 0 512 512;" xml:space="preserve">
<style type="text/css">
	.st0{fill:#FFFFFF;}
</style>
<path class="st0" d="M507.3,462.1L448,402.8l31.6-59c3.3-6.2,2.2-13.9-2.8-18.9l-17.5-17.5c-6.3-6.3-16.4-6.3-22.6,0L420,324L112,16
	L18.3,0.2c-10-1.4-19.7,7-18.1,18.1L16,112l308,308l-16.7,16.7c-6.3,6.3-6.3,16.4,0,22.6l17.5,17.5c5,5,12.7,6.1,18.9,2.8l59-31.6
	l59.3,59.3c6.3,6.3,16.4,6.3,22.6,0l22.6-22.6C513.6,478.4,513.6,468.3,507.3,462.1z M358,386L60.8,88.9l-5.7-33.8l33.8,5.7
	l297.2,297.2L358,386z M423.1,60.8l33.8-5.7l-5.7,33.8L340.7,199.4l33.9,33.9L496,112l15.8-93.7c1.4-10-7-19.7-18.1-18.1L400,16
	L278.6,137.4l33.9,33.9L423.1,60.8z M199.4,340.7l-45.4,45.4L125.9,358l45.4-45.4l-33.9-33.9L92,324l-16.7-16.7
	c-6.3-6.3-16.4-6.3-22.6,0l-17.5,17.5c-5,5-6.1,12.7-2.8,18.9l31.6,59L4.7,462.1c-6.3,6.3-6.3,16.4,0,22.6l22.6,22.6
	c6.3,6.3,16.4,6.3,22.6,0l59.3-59.3l59,31.6c6.2,3.3,13.9,2.2,18.9-2.8l17.5-17.5c6.3-6.3,6.3-16.4,0-22.6L188,420l45.4-45.4
	L199.4,340.7L199.4,340.7z"/>
</svg>
